<svg version="1.1" id="civicdr-logo" xmlns="http://www.w3.org/2000/svg" xmlns:xlink="http://www.w3.org/1999/xlink" x="0px" y="0px"
	 viewBox="0 0 603.9 224.5" style="enable-background:new 0 0 603.9 224.5;" xml:space="preserve">
<style type="text/css">
	.st0{fill:none;stroke:#000000;stroke-width:5.5851;stroke-linecap:square;stroke-linejoin:round;stroke-miterlimit:10;}
</style>
<g>
	<g>
		<path d="M282,49.2c1.8,0,3.3-0.5,4.5-1.5c1.2-1,1.9-2.3,2-3.9h2.5c-0.1,1.4-0.5,2.7-1.3,3.9s-1.9,2.1-3.3,2.8
			c-1.4,0.7-2.8,1-4.4,1c-3.1,0-5.5-1.1-7.3-3.2c-1.8-2.1-2.7-5-2.7-8.6v-0.8c0-2.3,0.4-4.3,1.2-6.1c0.8-1.8,2-3.1,3.5-4.1
			s3.3-1.4,5.3-1.4c2.6,0,4.7,0.8,6.3,2.3s2.5,3.5,2.7,6h-2.5c-0.1-1.8-0.8-3.3-2-4.4c-1.2-1.1-2.7-1.7-4.5-1.7
			c-2.3,0-4.1,0.8-5.4,2.5c-1.3,1.7-1.9,4-1.9,7.1v0.8c0,3,0.6,5.3,1.9,7C277.8,48.4,279.6,49.2,282,49.2z"/>
		<path d="M296,20.9c0-0.5,0.2-0.9,0.5-1.2s0.7-0.5,1.3-0.5s1,0.2,1.3,0.5c0.3,0.3,0.5,0.7,0.5,1.2s-0.2,0.9-0.5,1.2
			c-0.3,0.3-0.8,0.5-1.3,0.5s-1-0.2-1.3-0.5S296,21.4,296,20.9z M299,51h-2.6V27.6h2.6V51z"/>
		<path d="M313.3,47.4l7.1-19.8h2.7L314.3,51h-2.1l-8.8-23.4h2.7L313.3,47.4z"/>
		<path d="M327.1,20.9c0-0.5,0.2-0.9,0.5-1.2s0.7-0.5,1.3-0.5s1,0.2,1.3,0.5c0.3,0.3,0.5,0.7,0.5,1.2s-0.2,0.9-0.5,1.2
			c-0.3,0.3-0.8,0.5-1.3,0.5s-1-0.2-1.3-0.5S327.1,21.4,327.1,20.9z M330.2,51h-2.6V27.6h2.6V51z"/>
		<path d="M340.1,51h-2.6V17.8h2.6V51z"/>
		<path d="M371.8,45c0-1.3-0.5-2.3-1.5-3.1c-1-0.8-2.6-1.4-4.7-1.8c-2.1-0.4-3.7-0.9-4.8-1.5c-1.1-0.6-2-1.3-2.5-2.1s-0.8-1.8-0.8-3
			c0-1.8,0.8-3.4,2.3-4.6c1.5-1.2,3.5-1.8,5.9-1.8c2.6,0,4.7,0.6,6.3,1.9c1.6,1.3,2.4,3,2.4,5h-2.6c0-1.4-0.6-2.5-1.7-3.4
			c-1.1-0.9-2.6-1.4-4.3-1.4c-1.7,0-3.1,0.4-4.1,1.1c-1,0.8-1.5,1.7-1.5,2.9c0,1.2,0.4,2.1,1.3,2.7c0.9,0.6,2.4,1.2,4.7,1.8
			s4,1.1,5.1,1.7c1.1,0.6,2,1.3,2.5,2.2c0.5,0.8,0.8,1.9,0.8,3.1c0,2-0.8,3.5-2.4,4.7c-1.6,1.2-3.7,1.8-6.2,1.8
			c-2.7,0-4.9-0.7-6.6-2c-1.7-1.3-2.5-3-2.5-5h2.6c0.1,1.5,0.7,2.7,1.9,3.5s2.7,1.3,4.7,1.3c1.8,0,3.3-0.4,4.4-1.2
			C371.3,47.2,371.8,46.2,371.8,45z"/>
		<path d="M378.8,39c0-2.2,0.4-4.3,1.3-6.1c0.9-1.8,2.1-3.2,3.7-4.2c1.6-1,3.4-1.5,5.4-1.5c3.1,0,5.6,1.1,7.6,3.3
			c1.9,2.2,2.9,5.1,2.9,8.7v0.5c0,2.3-0.4,4.3-1.3,6.1s-2.1,3.2-3.7,4.2s-3.4,1.5-5.4,1.5c-3.1,0-5.6-1.1-7.5-3.3
			c-1.9-2.2-2.9-5.1-2.9-8.7V39z M381.4,39.7c0,2.8,0.7,5.1,2.2,6.9c1.4,1.8,3.3,2.7,5.7,2.7c2.3,0,4.2-0.9,5.7-2.7
			c1.4-1.8,2.2-4.2,2.2-7.1V39c0-1.8-0.3-3.4-1-4.9s-1.6-2.6-2.8-3.4c-1.2-0.8-2.6-1.2-4.1-1.2c-2.3,0-4.2,0.9-5.6,2.7
			c-1.5,1.8-2.2,4.2-2.2,7.1V39.7z"/>
		<path d="M413.6,49.2c1.8,0,3.3-0.5,4.5-1.5s1.9-2.3,2-3.9h2.5c-0.1,1.4-0.5,2.7-1.3,3.9s-1.9,2.1-3.3,2.8c-1.4,0.7-2.8,1-4.4,1
			c-3.1,0-5.5-1.1-7.3-3.2s-2.7-5-2.7-8.6v-0.8c0-2.3,0.4-4.3,1.2-6.1c0.8-1.8,2-3.1,3.5-4.1c1.5-1,3.3-1.4,5.3-1.4
			c2.6,0,4.7,0.8,6.3,2.3s2.6,3.5,2.7,6h-2.5c-0.1-1.8-0.8-3.3-2-4.4c-1.2-1.1-2.7-1.7-4.5-1.7c-2.3,0-4.1,0.8-5.4,2.5
			c-1.3,1.7-1.9,4-1.9,7.1v0.8c0,3,0.6,5.3,1.9,7C409.5,48.4,411.3,49.2,413.6,49.2z"/>
		<path d="M427.6,20.9c0-0.5,0.2-0.9,0.5-1.2s0.7-0.5,1.3-0.5s1,0.2,1.3,0.5c0.3,0.3,0.5,0.7,0.5,1.2s-0.2,0.9-0.5,1.2
			c-0.3,0.3-0.8,0.5-1.3,0.5s-1-0.2-1.3-0.5S427.6,21.4,427.6,20.9z M430.7,51h-2.6V27.6h2.6V51z"/>
		<path d="M446.7,51.4c-2,0-3.8-0.5-5.4-1.5s-2.9-2.3-3.7-4.1c-0.9-1.7-1.3-3.7-1.3-5.9V39c0-2.2,0.4-4.3,1.3-6.1
			c0.9-1.8,2.1-3.2,3.6-4.2c1.6-1,3.2-1.5,5.1-1.5c2.8,0,5.1,1,6.7,2.9s2.5,4.6,2.5,7.9v1.4h-16.7V40c0,2.6,0.8,4.9,2.3,6.6
			s3.4,2.6,5.7,2.6c1.4,0,2.6-0.3,3.7-0.8c1.1-0.5,2-1.3,2.9-2.4l1.6,1.2C453.1,50,450.3,51.4,446.7,51.4z M446.3,29.4
			c-1.9,0-3.6,0.7-4.9,2.1s-2.1,3.3-2.4,5.7h14V37c-0.1-2.2-0.7-4.1-1.9-5.5S448.2,29.4,446.3,29.4z"/>
		<path d="M464.5,21.6v6h4.8v2.1h-4.8v15.6c0,1.3,0.2,2.3,0.7,2.9s1.2,1,2.3,1c0.4,0,1.1-0.1,2.1-0.2l0.1,2.1
			c-0.7,0.2-1.6,0.4-2.8,0.4c-1.8,0-3.1-0.5-3.9-1.5c-0.8-1-1.2-2.5-1.2-4.5V29.7h-4.3v-2.1h4.3v-6H464.5z"/>
		<path d="M482.1,47.3l6.8-19.6h2.8l-10,27.3l-0.5,1.2c-1.3,2.8-3.3,4.3-5.9,4.3c-0.6,0-1.3-0.1-2-0.3l0-2.1l1.3,0.1
			c1.3,0,2.3-0.3,3.1-0.9c0.8-0.6,1.4-1.7,2-3.2l1.1-3.2L472,27.6h2.8L482.1,47.3z"/>
		<path d="M302.2,93.6c-0.2,3.7-1.7,6.7-4.4,8.8c-2.7,2.2-6.2,3.3-10.6,3.3c-4.7,0-8.4-1.4-11.1-4.3c-2.7-2.9-4.1-6.9-4.2-11.9v-1.9
			c0-5.1,1.4-9.1,4.1-12.2s6.5-4.5,11.1-4.5c4.4,0,7.9,1.1,10.6,3.3c2.6,2.2,4.2,5.2,4.5,9.1h-8.4c-0.2-3.7-2.4-5.6-6.7-5.6
			c-4.4,0-6.7,3.1-6.8,9.3v2.2c0,3.5,0.5,6,1.6,7.5c1.1,1.6,2.8,2.3,5.3,2.3c2.1,0,3.7-0.4,4.8-1.3c1.1-0.9,1.7-2.2,1.8-4H302.2z"/>
		<path d="M332,91.1h-14v7.3h16.5v6.8h-24.9v-34h25v6.8H318v6.2h14V91.1z"/>
		<path d="M371.5,105.2h-8.4l-13.4-21.2v21.2h-8.5v-34h8.5l13.4,21.2V71.3h8.4V105.2z"/>
		<path d="M408.7,78.1h-11v27.2h-8.5V78.1h-10.8v-6.8h30.3V78.1z"/>
		<path d="M438,91.1h-14v7.3h16.5v6.8h-24.9v-34h25v6.8H424v6.2h14V91.1z"/>
		<path d="M461,93.5h-5.3v11.7h-8.5v-34h14.2c4.3,0,7.7,0.9,10.1,2.7c2.4,1.8,3.6,4.3,3.6,7.5c0,2.4-0.5,4.4-1.5,6s-2.6,2.8-4.9,3.8
			l7.7,13.6v0.3h-9.1L461,93.5z M455.7,86.7h5.7c3.5,0,5.3-1.5,5.3-4.4c0-2.9-1.8-4.3-5.5-4.3h-5.5V86.7z"/>
		<path d="M295.6,146.3h-14.3v13.2h-8.5v-34h24.2v6.8h-15.8v7.1h14.3V146.3z"/>
		<path d="M334.6,143.2c0,3.3-0.7,6.3-2,8.8c-1.3,2.5-3.2,4.5-5.6,5.9c-2.4,1.4-5.2,2.1-8.2,2.1c-3.1,0-5.8-0.7-8.3-2
			c-2.4-1.4-4.3-3.3-5.6-5.8c-1.3-2.5-2-5.4-2-8.7v-1.5c0-3.3,0.7-6.3,2-8.8c1.3-2.5,3.2-4.5,5.6-5.9c2.4-1.4,5.2-2.1,8.3-2.1
			c3.1,0,5.8,0.7,8.2,2c2.4,1.4,4.3,3.3,5.6,5.8c1.3,2.5,2,5.5,2,8.8V143.2z M326.1,141.9c0-3.2-0.6-5.7-1.9-7.4
			c-1.3-1.7-3.1-2.6-5.4-2.6c-2.4,0-4.2,0.9-5.5,2.6c-1.3,1.7-1.9,4.2-1.9,7.4v1.3c0,3.2,0.6,5.6,1.9,7.4c1.3,1.8,3.1,2.6,5.5,2.6
			c2.3,0,4-0.9,5.3-2.6c1.3-1.7,2-4.2,2-7.5V141.9z"/>
		<path d="M356.1,147.8h-5.3v11.7h-8.5v-34h14.2c4.3,0,7.7,0.9,10.1,2.7c2.4,1.8,3.6,4.3,3.6,7.5c0,2.4-0.5,4.4-1.5,6
			s-2.6,2.8-4.9,3.8l7.7,13.6v0.3h-9.1L356.1,147.8z M350.8,141h5.7c3.5,0,5.3-1.5,5.3-4.4c0-2.9-1.8-4.3-5.5-4.3h-5.5V141z"/>
		<path d="M396.5,159.5v-34h11.6c3.2,0,6.1,0.7,8.6,2c2.6,1.4,4.6,3.3,6,5.7c1.4,2.5,2.2,5.2,2.2,8.3v1.6c0,3.1-0.7,5.9-2.1,8.4
			c-1.4,2.5-3.4,4.4-6,5.8c-2.6,1.4-5.4,2.1-8.7,2.1H396.5z M404.9,132.3v20.4h3.2c2.9,0,5-0.7,6.3-2.2c1.3-1.5,2-3.8,2-7v-1.7
			c0-3.2-0.6-5.6-1.9-7.1c-1.3-1.5-3.3-2.3-6.1-2.3H404.9z"/>
		<path d="M441.7,159.5h-8.5v-34h8.5V159.5z"/>
		<path d="M480.7,155.4c-1.3,1.4-3.2,2.5-5.8,3.3c-2.5,0.8-5.4,1.3-8.6,1.3c-4.9,0-8.7-1.4-11.6-4.3c-2.9-2.8-4.3-6.8-4.4-11.8v-2.3
			c0-5.1,1.4-9.2,4.2-12.1c2.8-3,6.6-4.4,11.3-4.4c4.5,0,7.9,1,10.4,2.9c2.5,2,4,4.9,4.4,8.8h-8.1c-0.3-1.7-0.9-2.9-1.9-3.7
			c-1-0.8-2.5-1.3-4.6-1.3c-2.3,0-4.1,0.8-5.4,2.4s-1.9,4-1.9,7.2v2c0,3.3,0.7,5.8,2,7.4c1.3,1.6,3.4,2.4,6.1,2.4
			c2.4,0,4.2-0.4,5.3-1.2v-4.8h-6.5v-6h15V155.4z"/>
		<path d="M497.6,159.5h-8.5v-34h8.5V159.5z"/>
		<path d="M535.3,132.3h-11v27.2h-8.5v-27.2H505v-6.8h30.3V132.3z"/>
		<path d="M563.2,153h-13.1l-2.4,6.5h-8.5l13.4-34h7.9l13.6,34h-8.5L563.2,153z M552.3,146.9h8.5l-4.3-11.5L552.3,146.9z"/>
		<path d="M588.4,152.7h15.5v6.8H580v-34h8.5V152.7z"/>
		<path d="M286.6,202.1h-5.3v11.7h-8.5v-34H287c4.3,0,7.7,0.9,10.1,2.7c2.4,1.8,3.6,4.3,3.6,7.5c0,2.4-0.5,4.4-1.5,6
			s-2.6,2.8-4.9,3.8l7.7,13.6v0.3h-9.1L286.6,202.1z M281.3,195.3h5.7c3.5,0,5.3-1.5,5.3-4.4c0-2.9-1.8-4.3-5.5-4.3h-5.5V195.3z"/>
		<path d="M331.6,199.6h-14v7.3h16.5v6.8h-24.9v-34h25v6.8h-16.5v6.2h14V199.6z"/>
		<path d="M359.8,204.7c0-1.1-0.5-2-1.4-2.7c-1-0.7-2.6-1.3-4.9-1.8c-2.3-0.5-4.2-1.1-5.8-1.7c-1.6-0.6-2.9-1.3-3.9-2.2
			c-1-0.8-1.8-1.8-2.2-2.9s-0.7-2.4-0.7-3.9c0-2.9,1.2-5.3,3.6-7.2c2.4-1.9,5.6-2.8,9.4-2.8c4.2,0,7.6,0.9,10.1,2.8
			c2.6,1.9,3.9,4.5,3.9,7.8h-8.4c0-1.2-0.5-2.3-1.5-3.1s-2.3-1.3-4-1.3c-1.5,0-2.7,0.3-3.6,1c-0.9,0.7-1.4,1.5-1.4,2.5
			s0.5,1.8,1.5,2.4c1,0.6,2.6,1.2,4.8,1.8c4.5,1,7.8,2.4,9.7,4.1c2,1.7,2.9,4.1,2.9,7.1c0,3-1.2,5.4-3.6,7.2
			c-2.4,1.8-5.7,2.6-9.8,2.6c-2.8,0-5.4-0.5-7.6-1.4s-4-2.2-5.3-3.9c-1.2-1.7-1.9-3.7-1.9-6h8.5c0,1.8,0.6,3.1,1.7,3.9
			c1.1,0.8,2.8,1.2,5,1.2c1.5,0,2.7-0.3,3.6-0.9C359.3,206.5,359.8,205.7,359.8,204.7z"/>
		<path d="M384.9,213.8h-8.5v-34h8.5V213.8z"/>
		<path d="M402.6,207h15.5v6.8h-23.9v-34h8.5V207z"/>
		<path d="M434,213.8h-8.5v-34h8.5V213.8z"/>
		<path d="M465.8,199.6h-14v7.3h16.5v6.8h-24.9v-34h25v6.8h-16.5v6.2h14V199.6z"/>
		<path d="M505.4,213.8h-8.4l-13.4-21.2v21.2h-8.5v-34h8.5l13.4,21.2v-21.2h8.4V213.8z"/>
		<path d="M543.5,202.1c-0.2,3.7-1.7,6.7-4.4,8.8c-2.7,2.2-6.2,3.3-10.6,3.3c-4.7,0-8.4-1.4-11.1-4.3c-2.7-2.9-4.1-6.9-4.2-11.9
			v-1.9c0-5.1,1.4-9.1,4.1-12.2c2.8-3,6.5-4.5,11.1-4.5c4.4,0,7.9,1.1,10.6,3.3c2.6,2.2,4.2,5.2,4.5,9.1h-8.4
			c-0.2-3.7-2.4-5.6-6.7-5.6c-4.4,0-6.7,3.1-6.8,9.3v2.2c0,3.5,0.5,6,1.6,7.5c1.1,1.6,2.8,2.3,5.3,2.3c2.1,0,3.7-0.4,4.8-1.3
			c1.1-0.9,1.7-2.2,1.8-4H543.5z"/>
		<path d="M573.3,199.6h-14v7.3h16.5v6.8h-24.9v-34h25v6.8h-16.5v6.2h14V199.6z"/>
	</g>
	<g>
		<g>
			<polygon class="st0" points="9.6,216.4 61.3,7.9 217.8,164.3 			"/>
			<polyline class="st0" points="61.7,112.2 217.8,164.3 165.7,60.6 61.3,7.9 61.7,112.2 9.6,216.3 			"/>
		</g>
		<circle cx="217.4" cy="164.3" r="8.9"/>
		<circle cx="167.5" cy="61.5" r="8.9"/>
		<circle cx="62.7" cy="8.9" r="8.9"/>
		<circle cx="8.9" cy="215.6" r="8.9"/>
		<circle cx="62.9" cy="112.7" r="8.9"/>
	</g>
</g>
</svg>
